<svg width="19" height="23" fill="none" xmlns="http://www.w3.org/2000/svg"><g opacity=".3" clip-path="url(#a)"><path d="M9.722 0c.326.076.664.13.985.235 1.844.629 3.013 2.163 3.137 4.097 0 .035.012.07.018.141h2.598c.487 0 .724.212.771.688.16 1.763.315 3.532.469 5.296l.57 6.3c.094 1.03.219 2.058.266 3.087.048 1.058-.456 1.869-1.305 2.474-.67.476-1.435.67-2.26.67-2.966-.006-5.937 0-8.903 0-.931 0-1.857.03-2.788-.011-1.174-.047-2.141-.53-2.823-1.505-.47-.67-.517-1.423-.433-2.21.172-1.628.302-3.263.444-4.897.143-1.604.291-3.203.433-4.808.13-1.422.255-2.845.38-4.267.006-.065.006-.135.018-.2.06-.411.29-.617.718-.623.794-.006 1.583 0 2.378 0h.273c.036-.7.172-1.346.486-1.945C5.902 1.129 7.058.306 8.624.047c.066-.012.13-.03.196-.047h.902ZM4.686 5.76H2.544c-.005.047-.017.083-.017.124-.178 2.01-.362 4.026-.54 6.036-.231 2.622-.463 5.25-.7 7.87-.042.483.119.882.439 1.23.498.528 1.139.71 1.845.71 3.796.006 7.598.006 11.394 0 .428 0 .837-.07 1.228-.258.623-.3 1.169-.94 1.062-1.764-.065-.493-.095-.999-.136-1.498-.155-1.764-.315-3.533-.469-5.296l-.534-5.966c-.035-.394-.077-.788-.113-1.176h-2.147v.218c0 .57.006 1.14-.006 1.704a.62.62 0 0 1-.64.617.636.636 0 0 1-.63-.611c-.005-.118 0-.241 0-.359V5.772H5.968v.147c0 .582.006 1.17 0 1.752-.006.376-.285.646-.64.64-.35 0-.617-.27-.63-.629-.005-.111 0-.223 0-.335-.011-.529-.011-1.052-.011-1.587Zm7.889-1.299c-.083-1.228-.623-2.169-1.69-2.762-1.157-.641-2.326-.594-3.435.123-.943.611-1.424 1.51-1.483 2.64h6.608Z" fill="#fff"/></g><defs><clipPath id="a"><path fill="#fff" d="M0 0h18.548v23H0z"/></clipPath></defs></svg>